<?xml version="1.0"?>
<svg xmlns="http://www.w3.org/2000/svg" xmlns:xlink="http://www.w3.org/1999/xlink" xmlns:svgjs="http://svgjs.com/svgjs" version="1.1" width="512" height="512" x="0" y="0" viewBox="0 0 451.803 451.803" style="enable-background:new 0 0 512 512" xml:space="preserve" class=""><g><g xmlns="http://www.w3.org/2000/svg"><path d="m226.401 0c-39.465 0-76.272 15.747-103.641 44.34l10.836 10.372c24.512-25.608 57.471-39.712 92.805-39.712 70.855 0 128.5 57.645 128.5 128.5s-57.645 128.5-128.5 128.5c-26.919 0-53.284-8.574-75.06-24.271 3.611-4.466 7.607-8.61 11.946-12.369 18.62 12.858 40.314 19.64 63.114 19.64 61.481 0 111.5-50.019 111.5-111.5s-50.018-111.5-111.5-111.5-111.5 50.019-111.5 111.5c0 20.472 5.569 40.295 16.127 57.683-4.343 3.871-8.45 8.001-12.297 12.366-13.647-20.849-20.83-44.871-20.83-70.049 0-28.504 9.178-55.519 26.543-78.124l-11.896-9.138c-19.395 25.249-29.647 55.424-29.647 87.262 0 29.813 8.999 58.184 26.079 82.41-16.422 23.334-26.079 51.755-26.079 82.393 0 79.126 64.374 143.5 143.5 143.5s143.5-64.374 143.5-143.5c0-29.813-8.999-58.184-26.079-82.41 16.422-23.334 26.079-51.755 26.079-82.393 0-79.126-64.374-143.5-143.5-143.5zm0 287c31.153 0 60.015-9.984 83.567-26.913 8.481 14.628 12.933 31.151 12.933 48.216 0 53.21-43.29 96.5-96.5 96.5s-96.5-43.29-96.5-96.5c0-17.55 4.711-34.019 12.933-48.214 24.268 17.408 53.611 26.911 83.567 26.911zm-50.164-61.104c14.627-8.937 31.805-14.093 50.165-14.093 17.944 0 35.089 4.859 50.166 14.104-14.628 8.937-31.806 14.093-50.167 14.093-17.94 0-35.087-4.86-50.164-14.104zm178.664 82.407c0 70.855-57.645 128.5-128.5 128.5s-128.5-57.645-128.5-128.5 57.645-128.5 128.5-128.5c22.13 0 43.965 5.744 63.142 16.612l7.396-13.051c-21.428-12.143-45.82-18.561-70.538-18.561-31.151 0-60.012 9.983-83.562 26.909-8.479-14.629-12.938-31.161-12.938-48.212 0-53.21 43.29-96.5 96.5-96.5s96.5 43.29 96.5 96.5c0 29.102-12.949 55.236-33.387 72.944-18.619-12.858-40.309-19.641-63.113-19.641-61.481 0-111.5 50.019-111.5 111.5s50.019 111.5 111.5 111.5 111.5-50.019 111.5-111.5c0-20.489-5.569-40.295-16.129-57.681 4.344-3.872 8.451-8.002 12.299-12.368 13.648 20.848 20.83 44.871 20.83 70.049z" fill="#68f03e" data-original="#000000" style="" class=""/><path d="m6.401 218.803h44.875v15h-44.875z" fill="#68f03e" data-original="#000000" style="" class=""/><path d="m29.028 160.236h15v44.875h-15z" transform="matrix(.342 -.94 .94 .342 -147.623 154.52)" fill="#68f03e" data-original="#000000" style="" class=""/><path d="m14.099 262.431h44.875v15h-44.875z" transform="matrix(.94 -.342 .342 .94 -90.111 28.771)" fill="#68f03e" data-original="#000000" style="" class=""/><path d="m400.526 218.802h44.875v15h-44.875z" fill="#68f03e" data-original="#000000" style="" class=""/><path d="m407.775 247.494h15v44.875h-15z" transform="matrix(.342 -.94 .94 .342 19.59 567.84)" fill="#68f03e" data-original="#000000" style="" class=""/><path d="m392.829 175.174h44.875v15h-44.875z" transform="matrix(.94 -.342 .342 .94 -37.433 153.031)" fill="#68f03e" data-original="#000000" style="" class=""/></g></g></svg>
